<?xml version="1.0" encoding="UTF-8" standalone="no"?>
<svg
   width="60mm"
   height="20mm"
   viewBox="0 0 60 20"
   version="1.1"
   id="svg8"
   inkscape:version="1.1 (ce6663b3b7, 2021-05-25)"
   sodipodi:docname="logo.svg"
   xmlns:inkscape="http://www.inkscape.org/namespaces/inkscape"
   xmlns:sodipodi="http://sodipodi.sourceforge.net/DTD/sodipodi-0.dtd"
   xmlns="http://www.w3.org/2000/svg"
   xmlns:svg="http://www.w3.org/2000/svg"
   xmlns:rdf="http://www.w3.org/1999/02/22-rdf-syntax-ns#"
   xmlns:cc="http://creativecommons.org/ns#"
   xmlns:dc="http://purl.org/dc/elements/1.1/">
  <defs
     id="defs2" />
  <sodipodi:namedview
     id="base"
     pagecolor="#ffffff"
     bordercolor="#666666"
     borderopacity="1.0"
     inkscape:pageopacity="0.0"
     inkscape:pageshadow="2"
     inkscape:zoom="2.8"
     inkscape:cx="53.214286"
     inkscape:cy="36.785714"
     inkscape:document-units="mm"
     inkscape:current-layer="layer1"
     inkscape:document-rotation="0"
     showgrid="false"
     inkscape:window-width="1920"
     inkscape:window-height="1043"
     inkscape:window-x="0"
     inkscape:window-y="0"
     inkscape:window-maximized="1"
     inkscape:pagecheckerboard="0"
     inkscape:lockguides="true" />
  <metadata
     id="metadata5">
    <rdf:RDF>
      <cc:Work
         rdf:about="">
        <dc:format>image/svg+xml</dc:format>
        <dc:type
           rdf:resource="http://purl.org/dc/dcmitype/StillImage" />
        <dc:title />
      </cc:Work>
    </rdf:RDF>
  </metadata>
  <g
     inkscape:label="Layer 1"
     inkscape:groupmode="layer"
     id="layer1">
    <g
       id="g836"
       transform="translate(-1.4181374,0.13357855)">
      <path
         style="color:#000000;font-style:normal;font-variant:normal;font-weight:normal;font-stretch:normal;font-size:medium;line-height:normal;font-family:sans-serif;font-variant-ligatures:normal;font-variant-position:normal;font-variant-caps:normal;font-variant-numeric:normal;font-variant-alternates:normal;font-feature-settings:normal;text-indent:0;text-align:start;text-decoration:none;text-decoration-line:none;text-decoration-style:solid;text-decoration-color:#000000;letter-spacing:normal;word-spacing:normal;text-transform:none;writing-mode:lr-tb;direction:ltr;text-orientation:mixed;dominant-baseline:auto;baseline-shift:baseline;text-anchor:start;white-space:normal;shape-padding:0;clip-rule:nonzero;display:inline;overflow:visible;visibility:visible;opacity:0.99;isolation:auto;mix-blend-mode:normal;color-interpolation:sRGB;color-interpolation-filters:linearRGB;solid-color:#000000;solid-opacity:1;vector-effect:none;fill:#ffd538;fill-opacity:1;fill-rule:nonzero;stroke:none;stroke-width:1.18546;stroke-linecap:round;stroke-linejoin:round;stroke-miterlimit:4;stroke-dasharray:none;stroke-dashoffset:0;stroke-opacity:1;color-rendering:auto;image-rendering:auto;shape-rendering:auto;text-rendering:auto;enable-background:accumulate"
         d="m 6.0957462,11.359011 c 0.3716911,1.797944 1.4017376,3.351249 2.8271526,4.399895 L 10.859739,12.404094 C 10.607662,12.383107 10.360585,12.359121 10.11911,12.332313 9.6351803,12.278168 9.1742349,12.211678 8.7399298,12.13464 8.3056017,12.057567 7.8982526,11.97009 7.5227061,11.872258 7.1471226,11.774374 6.8030277,11.666649 6.4931111,11.548183 6.3440982,11.491393 6.2289002,11.421551 6.0957462,11.359082 Z m 14.3134198,0 c -0.133121,0.06243 -0.24832,0.132099 -0.397375,0.189084 -0.310005,0.118519 -0.654087,0.226227 -1.029571,0.324058 -0.375495,0.09788 -0.782883,0.185327 -1.217251,0.262399 -0.434317,0.07708 -0.89526,0.143564 -1.379165,0.197673 -0.483844,0.05414 -0.99017,0.09647 -1.514144,0.125045 -0.523911,0.02875 -1.065694,0.04339 -1.61931,0.04339 -0.05564,0 -0.11053,-7.95e-4 -0.166015,-9.74e-4 l -2.427327,4.204074 c 0.805706,0.305045 1.679201,0.473353 2.59334,0.473335 3.532336,-3.5e-5 6.469382,-2.49232 7.156817,-5.817678 z"
         id="path7357-2-5"
         inkscape:connector-curvature="0"
         inkscape:export-xdpi="300.05869"
         inkscape:export-ydpi="300.05869" />
      <path
         style="color:#000000;font-style:normal;font-variant:normal;font-weight:normal;font-stretch:normal;font-size:medium;line-height:normal;font-family:sans-serif;font-variant-ligatures:normal;font-variant-position:normal;font-variant-caps:normal;font-variant-numeric:normal;font-variant-alternates:normal;font-feature-settings:normal;text-indent:0;text-align:start;text-decoration:none;text-decoration-line:none;text-decoration-style:solid;text-decoration-color:#000000;letter-spacing:normal;word-spacing:normal;text-transform:none;writing-mode:lr-tb;direction:ltr;text-orientation:mixed;dominant-baseline:auto;baseline-shift:baseline;text-anchor:start;white-space:normal;shape-padding:0;clip-rule:nonzero;display:inline;overflow:visible;visibility:visible;opacity:0.99;isolation:auto;mix-blend-mode:normal;color-interpolation:sRGB;color-interpolation-filters:linearRGB;solid-color:#000000;solid-opacity:1;vector-effect:none;fill:#3776a7;fill-opacity:1;fill-rule:nonzero;stroke:none;stroke-width:1.18546;stroke-linecap:round;stroke-linejoin:round;stroke-miterlimit:4;stroke-dasharray:none;stroke-dashoffset:0;stroke-opacity:1;color-rendering:auto;image-rendering:auto;shape-rendering:auto;text-rendering:auto;enable-background:accumulate"
         d="m 13.25235,2.5559243 v 0 c -4.0399192,-5.29e-5 -7.3016273,3.2589375 -7.3089501,7.2971194 0.00247,0.00706 0.00759,0.017814 0.02776,0.042505 0.04485,0.055379 0.1482546,0.1476193 0.3087491,0.2446393 0.1606003,0.09718 0.3760739,0.200759 0.636089,0.30016 0.2599517,0.09929 0.5643427,0.195239 0.9052224,0.284057 0.3408779,0.08889 0.7183715,0.170901 1.1253555,0.243193 0.4069981,0.07231 0.8436383,0.134217 1.3042191,0.185821 0.405377,0.04533 0.830047,0.08183 1.268095,0.108643 L 13.998894,6.9669126 C 13.509363,6.8270529 12.987903,6.7761179 12.458401,6.8286402 L 16.608374,3.369896 C 15.603737,2.8507404 14.46342,2.5557655 13.252136,2.5557479 Z m 4.246751,1.3583476 -0.225033,1.3013635 0.01322,0.00706 -0.02085,0.036155 -0.683241,3.9506506 C 16.372292,8.7278893 16.073026,8.3051894 15.710468,7.9534596 l -1.937469,3.3556214 c 0.351342,-0.0071 0.69697,-0.01816 1.033867,-0.03651 0.502067,-0.02734 0.98635,-0.06808 1.446968,-0.119753 0.460593,-0.0515 0.897473,-0.113581 1.304433,-0.185839 0.406935,-0.07214 0.78424,-0.154321 1.125145,-0.243193 0.340929,-0.08889 0.645382,-0.184728 0.90522,-0.28404 0.259927,-0.09929 0.475378,-0.202188 0.636089,-0.299367 v -9.73e-4 c 0.160513,-0.097 0.264022,-0.1893479 0.308749,-0.2446392 0.02009,-0.024691 0.02538,-0.036861 0.02776,-0.042328 C 20.55753,7.39947 19.35016,5.2356164 17.499044,3.9134592 Z"
         id="path7354-8-6"
         inkscape:connector-curvature="0"
         sodipodi:nodetypes="ccccccccccccccccccccccccccccccc"
         inkscape:export-xdpi="300.05869"
         inkscape:export-ydpi="300.05869" />
    </g>
    <text
       xml:space="preserve"
       style="font-style:normal;font-variant:normal;font-weight:normal;font-stretch:normal;font-size:14.1111px;line-height:1.25;font-family:arial;-inkscape-font-specification:arial;letter-spacing:-0.494771px;word-spacing:0px;fill:#646464;fill-opacity:1;stroke:none;stroke-width:0.575206"
       x="22.077391"
       y="12.434165"
       id="text835"><tspan
         sodipodi:role="line"
         id="tspan833"
         x="22.077391"
         y="12.434165"
         style="font-style:normal;font-variant:normal;font-weight:normal;font-stretch:normal;font-size:14.1111px;font-family:Ubuntu;-inkscape-font-specification:Ubuntu;fill:#646464;fill-opacity:1;stroke-width:0.575206"
         dx="0">pycce</tspan></text>
  </g>
</svg>
